{"title":"Maze.Runner.The.Scorch.Trials.2015.TS.x264-MenaceIISociety","uid":12487352,"size":1281433630,"categoryP":"video","categoryS":"movies","magnet":"?xt=urn:btih:f567dec031090571af524a2ba1d61ac61d914323&amp;dn=Maze.Runner.The.Scorch.Trials.2015.TS.x264-MenaceIISociety&amp;tr=udp%3A%2F%2Ftracker.leechers-paradise.org%3A6969&amp;tr=udp%3A%2F%2Fzer0day.ch%3A1337&amp;tr=udp%3A%2F%2Fopen.demonii.com%3A1337&amp;tr=udp%3A%2F%2Ftracker.coppersurfer.tk%3A6969&amp;tr=udp%3A%2F%2Fexodus.desync.com%3A6969","seeders":0,"leechers":0,"uploader":"TvTeam","files":4,"time":1443120811,"description":"------------------------------------------------------------------------\r\n\r  https://www.torrenting.com\r\n\r\nSign up is OPEN - for time being. Come and have fun.\r\n\r\n------------------------------------------------------------------------[center][img]http://s29.postimg.org/ts09jco39/folder.png[/img]\n\nMaze.Runner.The.Scorch.Trials.2015.TS.x264-MenaceIISociety \nhttp://www.imdb.com/title/tt4046784/\n\nSource: 720p-Hive-CM8 [THANKS]\n\nNOTE: cheers to Hive-CM8 for bringing a nice new source with line to watch 10/10 bro good job :) i just resized, adjusted some gamma, gain, sat, a few levels, enjoy :)\n\nGeneral\nComplete name                            : Maze.Runner.The.Scorch.Trials.2015.TS.x264-MenaceIISociety.mp4\nFormat                                   : MPEG-4\nFormat profile                           : Base Media\nCodec ID                                 : isom\nFile size                                : 1.17 GiB\nDuration                                 : 2h 3mn\nOverall bit rate mode                    : Variable\nOverall bit rate                         : 1 354 Kbps\nEncoded date                             : UTC 2015-09-24 11:54:52\nTagged date                              : UTC 2015-09-24 11:54:52\n\nVideo\nID                                       : 1\nFormat                                   : AVC\nFormat/Info                              : Advanced Video Codec\nFormat profile                           :   \nFormat settings, CABAC                   : Yes\nFormat settings, ReFrames                : 3 frames\nCodec ID                                 : avc1\nCodec ID/Info                            : Advanced Video Coding\nDuration                                 : 2h 3mn\nBit rate mode                            : Variable\nBit rate                                 : 1 212 Kbps\nMaximum bit rate                         : 40.0 Mbps\nWidth                                    : 720 pixels\nHeight                                   : 384 pixels\nDisplay aspect ratio                     : 1.85:1\nFrame rate mode                          : Constant\nFrame rate                               : 29.970 fps\nColor space                              : YUV\nChroma subsampling                       : 4:2:0\nBit depth                                : 8 bits\nScan type                                : Progressive\nBits/(Pixel*Frame)                       : 0.146\nStream size                              : 1.05 GiB (89%)\nWriting library                          : x264 core 148 r2597 e86f3a1\n\nAudio\nID                                       : 2\nFormat                                   : AAC\nFormat/Info                              : Advanced Audio Codec\nFormat profile                           : LC\nCodec ID                                 : 40\nDuration                                 : 2h 3mn\nBit rate mode                            : Variable\nBit rate                                 : 138 Kbps\nMaximum bit rate                         : 151 Kbps\nChannel(s)                               : 2 channels\nChannel positions                        : Front: L R\nSampling rate                            : 48.0 KHz\nCompression mode                         : Lossy\nStream size                              : 122 MiB (10%)\nLanguage                                 : English\nEncoded date                             : UTC 2015-09-23 16:40:34\nTagged date                              : UTC 2015-09-24 11:56:30\n\n[img]http://s28.postimg.org/sse1u8cil/image.jpg[/img]\n[img]http://s28.postimg.org/cnrn1095p/image.jpg[/img]\n[img]http://s28.postimg.org/m37ie7r6l/image.jpg[/img]\n[img]http://s28.postimg.org/rsnqyixct/image.jpg[/img]\n[img]http://s28.postimg.org/6lk0aikpp/image.jpg[/img]\n[img]http://s28.postimg.org/5hzvyk02l/image.jpg[/img]\n[img]http://s28.postimg.org/4jjiw9mql/image.jpg[/img]\n[img]http://s28.postimg.org/wkxk9ys0t/image.jpg[/img]\n[img]http://s28.postimg.org/azx303knx/image.jpg[/img]\n[img]http://s28.postimg.org/kyi1mku3h/image.jpg[/img] \n \n[img]http://s17.postimg.org/r1iiyw8yn/Untitled_1.png[/img][/center]","torrent":{"xt":"urn:btih:f567dec031090571af524a2ba1d61ac61d914323","amp;dn":"Maze.Runner.The.Scorch.Trials.2015.TS.x264-MenaceIISociety","amp;tr":["udp%3A%2F%2Ftracker.leechers-paradise.org%3A6969","udp%3A%2F%2Fzer0day.ch%3A1337","udp%3A%2F%2Fopen.demonii.com%3A1337","udp%3A%2F%2Ftracker.coppersurfer.tk%3A6969","udp%3A%2F%2Fexodus.desync.com%3A6969"],"infoHash":"f567dec031090571af524a2ba1d61ac61d914323","infoHashBuffer":{"type":"Buffer","data":[245,103,222,192,49,9,5,113,175,82,74,43,161,214,26,198,29,145,67,35]},"announce":[],"urlList":[]}}